<mxfile host="65bd71144e">
    <diagram id="-3RWgIohxsrwemtS9B3G" name="第1頁">
        <mxGraphModel dx="832" dy="563" grid="1" gridSize="10" guides="1" tooltips="1" connect="1" arrows="1" fold="1" page="1" pageScale="1" pageWidth="827" pageHeight="1169" math="0" shadow="0">
            <root>
                <mxCell id="0"/>
                <mxCell id="1" parent="0"/>
                <mxCell id="6" value="&lt;div style=&quot;color: rgb(204, 204, 204); background-color: rgb(31, 31, 31); font-family: Consolas, &amp;quot;Courier New&amp;quot;, monospace; font-weight: normal; font-size: 14px; line-height: 19px;&quot;&gt;警衛&lt;/div&gt;" style="swimlane;whiteSpace=wrap;html=1;startSize=23;" parent="1" vertex="1">
                    <mxGeometry x="332" y="372.5" width="144" height="110" as="geometry"/>
                </mxCell>
                <mxCell id="22" value="&lt;span style=&quot;color: rgb(255, 255, 255); font-family: &amp;quot;Söhne Mono&amp;quot;, Monaco, &amp;quot;Andale Mono&amp;quot;, &amp;quot;Ubuntu Mono&amp;quot;, monospace; font-size: 14px; text-align: left; background-color: rgb(13, 13, 13);&quot;&gt;姓名&lt;/span&gt;" style="text;strokeColor=none;align=center;fillColor=none;html=1;verticalAlign=middle;whiteSpace=wrap;rounded=0;" parent="6" vertex="1">
                    <mxGeometry x="14" y="30" width="60" height="30" as="geometry"/>
                </mxCell>
                <mxCell id="23" value="&lt;div style=&quot;text-align: left;&quot;&gt;&lt;font face=&quot;Söhne Mono, Monaco, Andale Mono, Ubuntu Mono, monospace&quot; color=&quot;#ffffff&quot;&gt;&lt;span style=&quot;font-size: 14px; background-color: rgb(13, 13, 13);&quot;&gt;簽收郵件/包裹&lt;/span&gt;&lt;/font&gt;&lt;/div&gt;" style="text;strokeColor=none;align=center;fillColor=none;html=1;verticalAlign=middle;whiteSpace=wrap;rounded=0;" parent="6" vertex="1">
                    <mxGeometry x="26" y="70" width="100" height="30" as="geometry"/>
                </mxCell>
                <mxCell id="73" value="" style="endArrow=none;html=1;" parent="6" edge="1">
                    <mxGeometry width="50" height="50" relative="1" as="geometry">
                        <mxPoint y="64.5" as="sourcePoint"/>
                        <mxPoint x="140" y="64.5" as="targetPoint"/>
                    </mxGeometry>
                </mxCell>
                <mxCell id="89" value="" style="line;strokeWidth=2;html=1;" parent="6" vertex="1">
                    <mxGeometry x="10" y="40" width="14" height="10" as="geometry"/>
                </mxCell>
                <mxCell id="123" value="" style="group" parent="6" vertex="1" connectable="0">
                    <mxGeometry x="11" y="78" width="14" height="14" as="geometry"/>
                </mxCell>
                <mxCell id="124" value="" style="line;strokeWidth=2;html=1;" parent="123" vertex="1">
                    <mxGeometry x="-1" y="2" width="14" height="10" as="geometry"/>
                </mxCell>
                <mxCell id="125" value="&lt;span style=&quot;color: rgba(0, 0, 0, 0); font-family: monospace; font-size: 0px; text-align: start; background-color: rgb(42, 37, 47);&quot;&gt;%3CmxGraphModel%3E%3Croot%3E%3CmxCell%20id%3D%220%22%2F%3E%3CmxCell%20id%3D%221%22%20parent%3D%220%22%2F%3E%3CmxCell%20id%3D%222%22%20value%3D%22%22%20style%3D%22group%22%20vertex%3D%221%22%20connectable%3D%220%22%20parent%3D%221%22%3E%3CmxGeometry%20x%3D%22661%22%20y%3D%22128%22%20width%3D%2214%22%20height%3D%2214%22%20as%3D%22geometry%22%2F%3E%3C%2FmxCell%3E%3CmxCell%20id%3D%223%22%20value%3D%22%22%20style%3D%22line%3BstrokeWidth%3D2%3Bhtml%3D1%3B%22%20vertex%3D%221%22%20parent%3D%222%22%3E%3CmxGeometry%20x%3D%22-1%22%20y%3D%222%22%20width%3D%2214%22%20height%3D%2210%22%20as%3D%22geometry%22%2F%3E%3C%2FmxCell%3E%3CmxCell%20id%3D%224%22%20value%3D%22%22%20style%3D%22line%3BstrokeWidth%3D2%3Bhtml%3D1%3Brotation%3D90%3B%22%20vertex%3D%221%22%20parent%3D%222%22%3E%3CmxGeometry%20x%3D%22-1%22%20y%3D%222%22%20width%3D%2214%22%20height%3D%2210%22%20as%3D%22geometry%22%2F%3E%3C%2FmxCell%3E%3C%2Froot%3E%3C%2FmxGraphModel%3E&lt;/span&gt;" style="line;strokeWidth=2;html=1;rotation=90;" parent="123" vertex="1">
                    <mxGeometry x="-1" y="2" width="14" height="10" as="geometry"/>
                </mxCell>
                <mxCell id="136" value="" style="group" parent="1" vertex="1" connectable="0">
                    <mxGeometry x="67" y="350" width="146" height="155" as="geometry"/>
                </mxCell>
                <mxCell id="2" value="&lt;font style=&quot;font-size: 14px;&quot;&gt;信件/包裹&lt;/font&gt;" style="swimlane;whiteSpace=wrap;html=1;startSize=23;" parent="136" vertex="1">
                    <mxGeometry width="146" height="155" as="geometry"/>
                </mxCell>
                <mxCell id="9" value="&lt;span style=&quot;color: rgb(255, 255, 255); font-family: &amp;quot;Söhne Mono&amp;quot;, Monaco, &amp;quot;Andale Mono&amp;quot;, &amp;quot;Ubuntu Mono&amp;quot;, monospace; font-size: 14px; text-align: left; background-color: rgb(13, 13, 13);&quot;&gt;收件人&lt;/span&gt;" style="text;strokeColor=none;align=center;fillColor=none;html=1;verticalAlign=middle;whiteSpace=wrap;rounded=0;" parent="2" vertex="1">
                    <mxGeometry x="28" y="28" width="60" height="30" as="geometry"/>
                </mxCell>
                <mxCell id="10" value="&lt;span style=&quot;color: rgb(255, 255, 255); font-family: &amp;quot;Söhne Mono&amp;quot;, Monaco, &amp;quot;Andale Mono&amp;quot;, &amp;quot;Ubuntu Mono&amp;quot;, monospace; font-size: 14px; text-align: left; background-color: rgb(13, 13, 13);&quot;&gt;收件時間&lt;/span&gt;" style="text;strokeColor=none;align=center;fillColor=none;html=1;verticalAlign=middle;whiteSpace=wrap;rounded=0;" parent="2" vertex="1">
                    <mxGeometry x="35" y="58" width="60" height="30" as="geometry"/>
                </mxCell>
                <mxCell id="11" value="&lt;span style=&quot;color: rgb(255, 255, 255); font-family: &amp;quot;Söhne Mono&amp;quot;, Monaco, &amp;quot;Andale Mono&amp;quot;, &amp;quot;Ubuntu Mono&amp;quot;, monospace; font-size: 14px; text-align: left; background-color: rgb(13, 13, 13);&quot;&gt;設定收件人&lt;/span&gt;" style="text;strokeColor=none;align=center;fillColor=none;html=1;verticalAlign=middle;whiteSpace=wrap;rounded=0;" parent="2" vertex="1">
                    <mxGeometry x="35" y="93" width="80" height="27" as="geometry"/>
                </mxCell>
                <mxCell id="62" value="&lt;span style=&quot;color: rgb(255, 255, 255); font-family: &amp;quot;Söhne Mono&amp;quot;, Monaco, &amp;quot;Andale Mono&amp;quot;, &amp;quot;Ubuntu Mono&amp;quot;, monospace; font-size: 14px; text-align: left; background-color: rgb(13, 13, 13);&quot;&gt;獲取收件時間&lt;/span&gt;" style="text;strokeColor=none;align=center;fillColor=none;html=1;verticalAlign=middle;whiteSpace=wrap;rounded=0;" parent="2" vertex="1">
                    <mxGeometry x="35" y="120" width="90" height="30" as="geometry"/>
                </mxCell>
                <mxCell id="70" value="" style="endArrow=none;html=1;" parent="2" edge="1">
                    <mxGeometry width="50" height="50" relative="1" as="geometry">
                        <mxPoint y="90" as="sourcePoint"/>
                        <mxPoint x="146" y="90" as="targetPoint"/>
                    </mxGeometry>
                </mxCell>
                <mxCell id="75" value="" style="line;strokeWidth=2;html=1;" parent="2" vertex="1">
                    <mxGeometry x="16" y="38" width="14" height="10" as="geometry"/>
                </mxCell>
                <mxCell id="80" value="" style="line;strokeWidth=2;html=1;" parent="136" vertex="1">
                    <mxGeometry x="16" y="68" width="14" height="10" as="geometry"/>
                </mxCell>
                <mxCell id="96" value="" style="group" parent="136" vertex="1" connectable="0">
                    <mxGeometry x="18" y="101" width="14" height="14" as="geometry"/>
                </mxCell>
                <mxCell id="92" value="" style="line;strokeWidth=2;html=1;" parent="96" vertex="1">
                    <mxGeometry x="-1" y="2" width="14" height="10" as="geometry"/>
                </mxCell>
                <mxCell id="93" value="" style="line;strokeWidth=2;html=1;rotation=90;" parent="96" vertex="1">
                    <mxGeometry x="-1" y="2" width="14" height="10" as="geometry"/>
                </mxCell>
                <mxCell id="97" value="" style="group" parent="136" vertex="1" connectable="0">
                    <mxGeometry x="18" y="129" width="14" height="14" as="geometry"/>
                </mxCell>
                <mxCell id="98" value="" style="line;strokeWidth=2;html=1;" parent="97" vertex="1">
                    <mxGeometry x="-1" y="2" width="14" height="10" as="geometry"/>
                </mxCell>
                <mxCell id="99" value="" style="line;strokeWidth=2;html=1;rotation=90;" parent="97" vertex="1">
                    <mxGeometry x="-1" y="2" width="14" height="10" as="geometry"/>
                </mxCell>
                <mxCell id="137" value="" style="group" parent="1" vertex="1" connectable="0">
                    <mxGeometry x="70" y="70" width="140" height="180" as="geometry"/>
                </mxCell>
                <mxCell id="3" value="&lt;div style=&quot;color: rgb(204, 204, 204); background-color: rgb(31, 31, 31); font-family: Consolas, &amp;quot;Courier New&amp;quot;, monospace; font-weight: normal; font-size: 14px; line-height: 19px;&quot;&gt;住戶&lt;/div&gt;" style="swimlane;whiteSpace=wrap;html=1;startSize=23;" parent="137" vertex="1">
                    <mxGeometry width="140" height="180" as="geometry"/>
                </mxCell>
                <mxCell id="12" value="&lt;span style=&quot;color: rgb(255, 255, 255); font-family: &amp;quot;Söhne Mono&amp;quot;, Monaco, &amp;quot;Andale Mono&amp;quot;, &amp;quot;Ubuntu Mono&amp;quot;, monospace; font-size: 14px; text-align: left; background-color: rgb(13, 13, 13);&quot;&gt;姓名&lt;/span&gt;" style="text;strokeColor=none;align=center;fillColor=none;html=1;verticalAlign=middle;whiteSpace=wrap;rounded=0;" parent="3" vertex="1">
                    <mxGeometry x="21" y="26" width="60" height="30" as="geometry"/>
                </mxCell>
                <mxCell id="13" value="&lt;span style=&quot;color: rgb(255, 255, 255); font-family: &amp;quot;Söhne Mono&amp;quot;, Monaco, &amp;quot;Andale Mono&amp;quot;, &amp;quot;Ubuntu Mono&amp;quot;, monospace; font-size: 14px; text-align: left; background-color: rgb(13, 13, 13);&quot;&gt;戶號&lt;/span&gt;" style="text;strokeColor=none;align=center;fillColor=none;html=1;verticalAlign=middle;whiteSpace=wrap;rounded=0;" parent="3" vertex="1">
                    <mxGeometry x="21" y="53" width="60" height="30" as="geometry"/>
                </mxCell>
                <mxCell id="14" value="&lt;span style=&quot;color: rgb(255, 255, 255); font-family: &amp;quot;Söhne Mono&amp;quot;, Monaco, &amp;quot;Andale Mono&amp;quot;, &amp;quot;Ubuntu Mono&amp;quot;, monospace; font-size: 14px; text-align: left; background-color: rgb(13, 13, 13);&quot;&gt;綁定手機&lt;/span&gt;" style="text;strokeColor=none;align=center;fillColor=none;html=1;verticalAlign=middle;whiteSpace=wrap;rounded=0;" parent="3" vertex="1">
                    <mxGeometry x="34" y="80" width="60" height="30" as="geometry"/>
                </mxCell>
                <mxCell id="59" value="&lt;span style=&quot;color: rgb(255, 255, 255); font-family: &amp;quot;Söhne Mono&amp;quot;, Monaco, &amp;quot;Andale Mono&amp;quot;, &amp;quot;Ubuntu Mono&amp;quot;, monospace; font-size: 14px; text-align: left; background-color: rgb(13, 13, 13);&quot;&gt;綁定手機&lt;/span&gt;" style="text;strokeColor=none;align=center;fillColor=none;html=1;verticalAlign=middle;whiteSpace=wrap;rounded=0;" parent="3" vertex="1">
                    <mxGeometry x="35" y="119" width="60" height="30" as="geometry"/>
                </mxCell>
                <mxCell id="60" value="&lt;span style=&quot;color: rgb(255, 255, 255); font-family: &amp;quot;Söhne Mono&amp;quot;, Monaco, &amp;quot;Andale Mono&amp;quot;, &amp;quot;Ubuntu Mono&amp;quot;, monospace; font-size: 14px; text-align: left; background-color: rgb(13, 13, 13);&quot;&gt;獲取綁定手機&lt;/span&gt;" style="text;strokeColor=none;align=center;fillColor=none;html=1;verticalAlign=middle;whiteSpace=wrap;rounded=0;" parent="3" vertex="1">
                    <mxGeometry x="34" y="146" width="90" height="30" as="geometry"/>
                </mxCell>
                <mxCell id="68" value="" style="endArrow=none;html=1;" parent="137" edge="1">
                    <mxGeometry width="50" height="50" relative="1" as="geometry">
                        <mxPoint y="116" as="sourcePoint"/>
                        <mxPoint x="140" y="116" as="targetPoint"/>
                    </mxGeometry>
                </mxCell>
                <mxCell id="81" value="" style="line;strokeWidth=2;html=1;" parent="137" vertex="1">
                    <mxGeometry x="14" y="37" width="14" height="10" as="geometry"/>
                </mxCell>
                <mxCell id="82" value="" style="line;strokeWidth=2;html=1;" parent="137" vertex="1">
                    <mxGeometry x="15" y="63" width="14" height="10" as="geometry"/>
                </mxCell>
                <mxCell id="83" value="" style="line;strokeWidth=2;html=1;" parent="137" vertex="1">
                    <mxGeometry x="15" y="90" width="14" height="10" as="geometry"/>
                </mxCell>
                <mxCell id="100" value="" style="group" parent="137" vertex="1" connectable="0">
                    <mxGeometry x="18" y="128" width="14" height="14" as="geometry"/>
                </mxCell>
                <mxCell id="101" value="" style="line;strokeWidth=2;html=1;" parent="100" vertex="1">
                    <mxGeometry x="-1" y="2" width="14" height="10" as="geometry"/>
                </mxCell>
                <mxCell id="102" value="" style="line;strokeWidth=2;html=1;rotation=90;" parent="100" vertex="1">
                    <mxGeometry x="-1" y="2" width="14" height="10" as="geometry"/>
                </mxCell>
                <mxCell id="103" value="" style="group" parent="137" vertex="1" connectable="0">
                    <mxGeometry x="18" y="154" width="14" height="14" as="geometry"/>
                </mxCell>
                <mxCell id="104" value="" style="line;strokeWidth=2;html=1;" parent="103" vertex="1">
                    <mxGeometry x="-1" y="2" width="14" height="10" as="geometry"/>
                </mxCell>
                <mxCell id="105" value="" style="line;strokeWidth=2;html=1;rotation=90;" parent="103" vertex="1">
                    <mxGeometry x="-1" y="2" width="14" height="10" as="geometry"/>
                </mxCell>
                <mxCell id="138" value="" style="group" parent="1" vertex="1" connectable="0">
                    <mxGeometry x="332" y="85" width="140" height="150" as="geometry"/>
                </mxCell>
                <mxCell id="4" value="&lt;div style=&quot;color: rgb(204, 204, 204); background-color: rgb(31, 31, 31); font-family: Consolas, &amp;quot;Courier New&amp;quot;, monospace; font-weight: normal; font-size: 14px; line-height: 19px;&quot;&gt;手機&lt;/div&gt;" style="swimlane;whiteSpace=wrap;html=1;" parent="138" vertex="1">
                    <mxGeometry width="140" height="150" as="geometry"/>
                </mxCell>
                <mxCell id="15" value="&lt;span style=&quot;color: rgb(255, 255, 255); font-family: &amp;quot;Söhne Mono&amp;quot;, Monaco, &amp;quot;Andale Mono&amp;quot;, &amp;quot;Ubuntu Mono&amp;quot;, monospace; font-size: 14px; text-align: left; background-color: rgb(13, 13, 13);&quot;&gt;手機號碼&lt;/span&gt;" style="text;strokeColor=none;align=center;fillColor=none;html=1;verticalAlign=middle;whiteSpace=wrap;rounded=0;" parent="4" vertex="1">
                    <mxGeometry x="38" y="27" width="60" height="30" as="geometry"/>
                </mxCell>
                <mxCell id="16" value="&lt;span style=&quot;color: rgb(255, 255, 255); font-family: &amp;quot;Söhne Mono&amp;quot;, Monaco, &amp;quot;Andale Mono&amp;quot;, &amp;quot;Ubuntu Mono&amp;quot;, monospace; font-size: 14px; text-align: left; background-color: rgb(13, 13, 13);&quot;&gt;綁定戶&lt;/span&gt;" style="text;strokeColor=none;align=center;fillColor=none;html=1;verticalAlign=middle;whiteSpace=wrap;rounded=0;" parent="4" vertex="1">
                    <mxGeometry x="33" y="57" width="60" height="30" as="geometry"/>
                </mxCell>
                <mxCell id="17" value="&lt;span style=&quot;color: rgb(255, 255, 255); font-family: &amp;quot;Söhne Mono&amp;quot;, Monaco, &amp;quot;Andale Mono&amp;quot;, &amp;quot;Ubuntu Mono&amp;quot;, monospace; font-size: 14px; text-align: left; background-color: rgb(13, 13, 13);&quot;&gt;綁定戶&lt;/span&gt;" style="text;strokeColor=none;align=center;fillColor=none;html=1;verticalAlign=middle;whiteSpace=wrap;rounded=0;" parent="4" vertex="1">
                    <mxGeometry x="33" y="90" width="60" height="30" as="geometry"/>
                </mxCell>
                <mxCell id="61" value="&lt;span style=&quot;color: rgb(255, 255, 255); font-family: &amp;quot;Söhne Mono&amp;quot;, Monaco, &amp;quot;Andale Mono&amp;quot;, &amp;quot;Ubuntu Mono&amp;quot;, monospace; font-size: 14px; text-align: left; background-color: rgb(13, 13, 13);&quot;&gt;解除綁定&lt;/span&gt;" style="text;strokeColor=none;align=center;fillColor=none;html=1;verticalAlign=middle;whiteSpace=wrap;rounded=0;" parent="4" vertex="1">
                    <mxGeometry x="40" y="120" width="60" height="30" as="geometry"/>
                </mxCell>
                <mxCell id="69" value="" style="endArrow=none;html=1;" parent="4" edge="1">
                    <mxGeometry width="50" height="50" relative="1" as="geometry">
                        <mxPoint y="90" as="sourcePoint"/>
                        <mxPoint x="140" y="90" as="targetPoint"/>
                    </mxGeometry>
                </mxCell>
                <mxCell id="84" value="" style="line;strokeWidth=2;html=1;" parent="138" vertex="1">
                    <mxGeometry x="18" y="67" width="14" height="10" as="geometry"/>
                </mxCell>
                <mxCell id="85" value="" style="line;strokeWidth=2;html=1;" parent="138" vertex="1">
                    <mxGeometry x="18" y="36" width="14" height="10" as="geometry"/>
                </mxCell>
                <mxCell id="106" value="" style="group" parent="138" vertex="1" connectable="0">
                    <mxGeometry x="21" y="98" width="14" height="14" as="geometry"/>
                </mxCell>
                <mxCell id="107" value="" style="line;strokeWidth=2;html=1;" parent="106" vertex="1">
                    <mxGeometry x="-1" y="2" width="14" height="10" as="geometry"/>
                </mxCell>
                <mxCell id="108" value="" style="line;strokeWidth=2;html=1;rotation=90;" parent="106" vertex="1">
                    <mxGeometry x="-1" y="2" width="14" height="10" as="geometry"/>
                </mxCell>
                <mxCell id="109" value="" style="group" parent="138" vertex="1" connectable="0">
                    <mxGeometry x="21" y="128" width="14" height="14" as="geometry"/>
                </mxCell>
                <mxCell id="110" value="" style="line;strokeWidth=2;html=1;" parent="109" vertex="1">
                    <mxGeometry x="-1" y="2" width="14" height="10" as="geometry"/>
                </mxCell>
                <mxCell id="111" value="" style="line;strokeWidth=2;html=1;rotation=90;" parent="109" vertex="1">
                    <mxGeometry x="-1" y="2" width="14" height="10" as="geometry"/>
                </mxCell>
                <mxCell id="139" value="" style="group" parent="1" vertex="1" connectable="0">
                    <mxGeometry x="590" y="360" width="140" height="180" as="geometry"/>
                </mxCell>
                <mxCell id="8" value="&lt;div style=&quot;color: rgb(204, 204, 204); background-color: rgb(31, 31, 31); font-family: Consolas, &amp;quot;Courier New&amp;quot;, monospace; font-weight: normal; font-size: 14px; line-height: 19px;&quot;&gt;主任委員&lt;/div&gt;" style="swimlane;whiteSpace=wrap;html=1;" parent="139" vertex="1">
                    <mxGeometry width="140" height="180" as="geometry"/>
                </mxCell>
                <mxCell id="28" value="&lt;span style=&quot;color: rgb(255, 255, 255); font-family: &amp;quot;Söhne Mono&amp;quot;, Monaco, &amp;quot;Andale Mono&amp;quot;, &amp;quot;Ubuntu Mono&amp;quot;, monospace; font-size: 14px; text-align: left; background-color: rgb(13, 13, 13);&quot;&gt;姓名&lt;/span&gt;" style="text;strokeColor=none;align=center;fillColor=none;html=1;verticalAlign=middle;whiteSpace=wrap;rounded=0;" parent="8" vertex="1">
                    <mxGeometry x="27" y="24" width="60" height="30" as="geometry"/>
                </mxCell>
                <mxCell id="29" value="&lt;span style=&quot;color: rgb(255, 255, 255); font-family: &amp;quot;Söhne Mono&amp;quot;, Monaco, &amp;quot;Andale Mono&amp;quot;, &amp;quot;Ubuntu Mono&amp;quot;, monospace; font-size: 14px; text-align: left; background-color: rgb(13, 13, 13);&quot;&gt;職位&lt;/span&gt;" style="text;strokeColor=none;align=center;fillColor=none;html=1;verticalAlign=middle;whiteSpace=wrap;rounded=0;" parent="8" vertex="1">
                    <mxGeometry x="28" y="54" width="60" height="30" as="geometry"/>
                </mxCell>
                <mxCell id="65" value="&lt;span style=&quot;color: rgb(255, 255, 255); font-family: &amp;quot;Söhne Mono&amp;quot;, Monaco, &amp;quot;Andale Mono&amp;quot;, &amp;quot;Ubuntu Mono&amp;quot;, monospace; font-size: 14px; text-align: left; background-color: rgb(13, 13, 13);&quot;&gt;修改公告&lt;/span&gt;" style="text;strokeColor=none;align=center;fillColor=none;html=1;verticalAlign=middle;whiteSpace=wrap;rounded=0;" parent="8" vertex="1">
                    <mxGeometry x="41" y="120" width="60" height="30" as="geometry"/>
                </mxCell>
                <mxCell id="66" value="&lt;span style=&quot;color: rgb(255, 255, 255); font-family: &amp;quot;Söhne Mono&amp;quot;, Monaco, &amp;quot;Andale Mono&amp;quot;, &amp;quot;Ubuntu Mono&amp;quot;, monospace; font-size: 14px; text-align: left; background-color: rgb(13, 13, 13);&quot;&gt;刪除公告&lt;/span&gt;" style="text;strokeColor=none;align=center;fillColor=none;html=1;verticalAlign=middle;whiteSpace=wrap;rounded=0;" parent="8" vertex="1">
                    <mxGeometry x="41" y="150" width="60" height="30" as="geometry"/>
                </mxCell>
                <mxCell id="67" value="&lt;span style=&quot;color: rgb(255, 255, 255); font-family: &amp;quot;Söhne Mono&amp;quot;, Monaco, &amp;quot;Andale Mono&amp;quot;, &amp;quot;Ubuntu Mono&amp;quot;, monospace; font-size: 14px; text-align: left; background-color: rgb(13, 13, 13);&quot;&gt;發布公告&lt;/span&gt;" style="text;strokeColor=none;align=center;fillColor=none;html=1;verticalAlign=middle;whiteSpace=wrap;rounded=0;" parent="8" vertex="1">
                    <mxGeometry x="41" y="90" width="60" height="30" as="geometry"/>
                </mxCell>
                <mxCell id="72" value="" style="endArrow=none;html=1;" parent="8" edge="1">
                    <mxGeometry width="50" height="50" relative="1" as="geometry">
                        <mxPoint y="89" as="sourcePoint"/>
                        <mxPoint x="140" y="89" as="targetPoint"/>
                    </mxGeometry>
                </mxCell>
                <mxCell id="90" value="" style="line;strokeWidth=2;html=1;" parent="8" vertex="1">
                    <mxGeometry x="16" y="34" width="14" height="10" as="geometry"/>
                </mxCell>
                <mxCell id="91" value="" style="line;strokeWidth=2;html=1;" parent="8" vertex="1">
                    <mxGeometry x="16" y="64" width="14" height="10" as="geometry"/>
                </mxCell>
                <mxCell id="117" value="" style="group" parent="8" vertex="1" connectable="0">
                    <mxGeometry x="19" y="128" width="14" height="14" as="geometry"/>
                </mxCell>
                <mxCell id="118" value="" style="line;strokeWidth=2;html=1;" parent="117" vertex="1">
                    <mxGeometry x="-1" y="2" width="14" height="10" as="geometry"/>
                </mxCell>
                <mxCell id="119" value="&lt;span style=&quot;color: rgba(0, 0, 0, 0); font-family: monospace; font-size: 0px; text-align: start; background-color: rgb(42, 37, 47);&quot;&gt;%3CmxGraphModel%3E%3Croot%3E%3CmxCell%20id%3D%220%22%2F%3E%3CmxCell%20id%3D%221%22%20parent%3D%220%22%2F%3E%3CmxCell%20id%3D%222%22%20value%3D%22%22%20style%3D%22group%22%20vertex%3D%221%22%20connectable%3D%220%22%20parent%3D%221%22%3E%3CmxGeometry%20x%3D%22661%22%20y%3D%22128%22%20width%3D%2214%22%20height%3D%2214%22%20as%3D%22geometry%22%2F%3E%3C%2FmxCell%3E%3CmxCell%20id%3D%223%22%20value%3D%22%22%20style%3D%22line%3BstrokeWidth%3D2%3Bhtml%3D1%3B%22%20vertex%3D%221%22%20parent%3D%222%22%3E%3CmxGeometry%20x%3D%22-1%22%20y%3D%222%22%20width%3D%2214%22%20height%3D%2210%22%20as%3D%22geometry%22%2F%3E%3C%2FmxCell%3E%3CmxCell%20id%3D%224%22%20value%3D%22%22%20style%3D%22line%3BstrokeWidth%3D2%3Bhtml%3D1%3Brotation%3D90%3B%22%20vertex%3D%221%22%20parent%3D%222%22%3E%3CmxGeometry%20x%3D%22-1%22%20y%3D%222%22%20width%3D%2214%22%20height%3D%2210%22%20as%3D%22geometry%22%2F%3E%3C%2FmxCell%3E%3C%2Froot%3E%3C%2FmxGraphModel%3E&lt;/span&gt;" style="line;strokeWidth=2;html=1;rotation=90;" parent="117" vertex="1">
                    <mxGeometry x="-1" y="2" width="14" height="10" as="geometry"/>
                </mxCell>
                <mxCell id="120" value="" style="group" parent="8" vertex="1" connectable="0">
                    <mxGeometry x="19" y="158" width="14" height="14" as="geometry"/>
                </mxCell>
                <mxCell id="121" value="" style="line;strokeWidth=2;html=1;" parent="120" vertex="1">
                    <mxGeometry x="-1" y="2" width="14" height="10" as="geometry"/>
                </mxCell>
                <mxCell id="122" value="&lt;span style=&quot;color: rgba(0, 0, 0, 0); font-family: monospace; font-size: 0px; text-align: start; background-color: rgb(42, 37, 47);&quot;&gt;%3CmxGraphModel%3E%3Croot%3E%3CmxCell%20id%3D%220%22%2F%3E%3CmxCell%20id%3D%221%22%20parent%3D%220%22%2F%3E%3CmxCell%20id%3D%222%22%20value%3D%22%22%20style%3D%22group%22%20vertex%3D%221%22%20connectable%3D%220%22%20parent%3D%221%22%3E%3CmxGeometry%20x%3D%22661%22%20y%3D%22128%22%20width%3D%2214%22%20height%3D%2214%22%20as%3D%22geometry%22%2F%3E%3C%2FmxCell%3E%3CmxCell%20id%3D%223%22%20value%3D%22%22%20style%3D%22line%3BstrokeWidth%3D2%3Bhtml%3D1%3B%22%20vertex%3D%221%22%20parent%3D%222%22%3E%3CmxGeometry%20x%3D%22-1%22%20y%3D%222%22%20width%3D%2214%22%20height%3D%2210%22%20as%3D%22geometry%22%2F%3E%3C%2FmxCell%3E%3CmxCell%20id%3D%224%22%20value%3D%22%22%20style%3D%22line%3BstrokeWidth%3D2%3Bhtml%3D1%3Brotation%3D90%3B%22%20vertex%3D%221%22%20parent%3D%222%22%3E%3CmxGeometry%20x%3D%22-1%22%20y%3D%222%22%20width%3D%2214%22%20height%3D%2210%22%20as%3D%22geometry%22%2F%3E%3C%2FmxCell%3E%3C%2Froot%3E%3C%2FmxGraphModel%3E&lt;/span&gt;" style="line;strokeWidth=2;html=1;rotation=90;" parent="120" vertex="1">
                    <mxGeometry x="-1" y="2" width="14" height="10" as="geometry"/>
                </mxCell>
                <mxCell id="112" value="" style="group" parent="139" vertex="1" connectable="0">
                    <mxGeometry x="19" y="98" width="14" height="14" as="geometry"/>
                </mxCell>
                <mxCell id="113" value="" style="line;strokeWidth=2;html=1;" parent="112" vertex="1">
                    <mxGeometry x="-1" y="2" width="14" height="10" as="geometry"/>
                </mxCell>
                <mxCell id="114" value="&lt;span style=&quot;color: rgba(0, 0, 0, 0); font-family: monospace; font-size: 0px; text-align: start; background-color: rgb(42, 37, 47);&quot;&gt;%3CmxGraphModel%3E%3Croot%3E%3CmxCell%20id%3D%220%22%2F%3E%3CmxCell%20id%3D%221%22%20parent%3D%220%22%2F%3E%3CmxCell%20id%3D%222%22%20value%3D%22%22%20style%3D%22group%22%20vertex%3D%221%22%20connectable%3D%220%22%20parent%3D%221%22%3E%3CmxGeometry%20x%3D%22661%22%20y%3D%22128%22%20width%3D%2214%22%20height%3D%2214%22%20as%3D%22geometry%22%2F%3E%3C%2FmxCell%3E%3CmxCell%20id%3D%223%22%20value%3D%22%22%20style%3D%22line%3BstrokeWidth%3D2%3Bhtml%3D1%3B%22%20vertex%3D%221%22%20parent%3D%222%22%3E%3CmxGeometry%20x%3D%22-1%22%20y%3D%222%22%20width%3D%2214%22%20height%3D%2210%22%20as%3D%22geometry%22%2F%3E%3C%2FmxCell%3E%3CmxCell%20id%3D%224%22%20value%3D%22%22%20style%3D%22line%3BstrokeWidth%3D2%3Bhtml%3D1%3Brotation%3D90%3B%22%20vertex%3D%221%22%20parent%3D%222%22%3E%3CmxGeometry%20x%3D%22-1%22%20y%3D%222%22%20width%3D%2214%22%20height%3D%2210%22%20as%3D%22geometry%22%2F%3E%3C%2FmxCell%3E%3C%2Froot%3E%3C%2FmxGraphModel%3E&lt;/span&gt;" style="line;strokeWidth=2;html=1;rotation=90;" parent="112" vertex="1">
                    <mxGeometry x="-1" y="2" width="14" height="10" as="geometry"/>
                </mxCell>
                <mxCell id="140" value="" style="group" parent="1" vertex="1" connectable="0">
                    <mxGeometry x="590" y="55" width="140" height="210" as="geometry"/>
                </mxCell>
                <mxCell id="7" value="&lt;div style=&quot;color: rgb(204, 204, 204); background-color: rgb(31, 31, 31); font-family: Consolas, &amp;quot;Courier New&amp;quot;, monospace; font-weight: normal; font-size: 14px; line-height: 19px;&quot;&gt;公告&lt;/div&gt;" style="swimlane;whiteSpace=wrap;html=1;startSize=23;" parent="140" vertex="1">
                    <mxGeometry width="140" height="210" as="geometry"/>
                </mxCell>
                <mxCell id="24" value="&lt;span style=&quot;color: rgb(255, 255, 255); font-family: &amp;quot;Söhne Mono&amp;quot;, Monaco, &amp;quot;Andale Mono&amp;quot;, &amp;quot;Ubuntu Mono&amp;quot;, monospace; font-size: 14px; text-align: left; background-color: rgb(13, 13, 13);&quot;&gt;發布者&lt;/span&gt;" style="text;strokeColor=none;align=center;fillColor=none;html=1;verticalAlign=middle;whiteSpace=wrap;rounded=0;" parent="7" vertex="1">
                    <mxGeometry x="32" y="31" width="60" height="30" as="geometry"/>
                </mxCell>
                <mxCell id="26" value="&lt;span style=&quot;color: rgb(255, 255, 255); font-family: &amp;quot;Söhne Mono&amp;quot;, Monaco, &amp;quot;Andale Mono&amp;quot;, &amp;quot;Ubuntu Mono&amp;quot;, monospace; font-size: 14px; text-align: left; background-color: rgb(13, 13, 13);&quot;&gt;內容&lt;/span&gt;" style="text;strokeColor=none;align=center;fillColor=none;html=1;verticalAlign=middle;whiteSpace=wrap;rounded=0;" parent="7" vertex="1">
                    <mxGeometry x="25" y="60" width="60" height="30" as="geometry"/>
                </mxCell>
                <mxCell id="30" value="&lt;span style=&quot;color: rgb(255, 255, 255); font-family: &amp;quot;Söhne Mono&amp;quot;, Monaco, &amp;quot;Andale Mono&amp;quot;, &amp;quot;Ubuntu Mono&amp;quot;, monospace; font-size: 14px; text-align: left; background-color: rgb(13, 13, 13);&quot;&gt;新增公告&lt;/span&gt;" style="text;strokeColor=none;align=center;fillColor=none;html=1;verticalAlign=middle;whiteSpace=wrap;rounded=0;" parent="7" vertex="1">
                    <mxGeometry x="40" y="123" width="60" height="30" as="geometry"/>
                </mxCell>
                <mxCell id="25" value="&lt;span style=&quot;color: rgb(255, 255, 255); font-family: &amp;quot;Söhne Mono&amp;quot;, Monaco, &amp;quot;Andale Mono&amp;quot;, &amp;quot;Ubuntu Mono&amp;quot;, monospace; font-size: 14px; text-align: left; background-color: rgb(13, 13, 13);&quot;&gt;發布時間&lt;/span&gt;" style="text;strokeColor=none;align=center;fillColor=none;html=1;verticalAlign=middle;whiteSpace=wrap;rounded=0;" parent="7" vertex="1">
                    <mxGeometry x="38" y="86" width="60" height="30" as="geometry"/>
                </mxCell>
                <mxCell id="63" value="&lt;span style=&quot;color: rgb(255, 255, 255); font-family: &amp;quot;Söhne Mono&amp;quot;, Monaco, &amp;quot;Andale Mono&amp;quot;, &amp;quot;Ubuntu Mono&amp;quot;, monospace; font-size: 14px; text-align: left; background-color: rgb(13, 13, 13);&quot;&gt;修改公告&lt;/span&gt;" style="text;strokeColor=none;align=center;fillColor=none;html=1;verticalAlign=middle;whiteSpace=wrap;rounded=0;" parent="7" vertex="1">
                    <mxGeometry x="40" y="150" width="60" height="30" as="geometry"/>
                </mxCell>
                <mxCell id="64" value="&lt;span style=&quot;color: rgb(255, 255, 255); font-family: &amp;quot;Söhne Mono&amp;quot;, Monaco, &amp;quot;Andale Mono&amp;quot;, &amp;quot;Ubuntu Mono&amp;quot;, monospace; font-size: 14px; text-align: left; background-color: rgb(13, 13, 13);&quot;&gt;刪除公告&lt;/span&gt;" style="text;strokeColor=none;align=center;fillColor=none;html=1;verticalAlign=middle;whiteSpace=wrap;rounded=0;" parent="7" vertex="1">
                    <mxGeometry x="40" y="178" width="60" height="30" as="geometry"/>
                </mxCell>
                <mxCell id="71" value="" style="endArrow=none;html=1;" parent="7" edge="1">
                    <mxGeometry width="50" height="50" relative="1" as="geometry">
                        <mxPoint y="120" as="sourcePoint"/>
                        <mxPoint x="140" y="120" as="targetPoint"/>
                    </mxGeometry>
                </mxCell>
                <mxCell id="86" value="" style="line;strokeWidth=2;html=1;" parent="7" vertex="1">
                    <mxGeometry x="18" y="41" width="14" height="10" as="geometry"/>
                </mxCell>
                <mxCell id="126" value="" style="group" parent="7" vertex="1" connectable="0">
                    <mxGeometry x="19" y="131" width="14" height="14" as="geometry"/>
                </mxCell>
                <mxCell id="127" value="" style="line;strokeWidth=2;html=1;" parent="126" vertex="1">
                    <mxGeometry x="-1" y="2" width="14" height="10" as="geometry"/>
                </mxCell>
                <mxCell id="128" value="&lt;span style=&quot;color: rgba(0, 0, 0, 0); font-family: monospace; font-size: 0px; text-align: start; background-color: rgb(42, 37, 47);&quot;&gt;%3CmxGraphModel%3E%3Croot%3E%3CmxCell%20id%3D%220%22%2F%3E%3CmxCell%20id%3D%221%22%20parent%3D%220%22%2F%3E%3CmxCell%20id%3D%222%22%20value%3D%22%22%20style%3D%22group%22%20vertex%3D%221%22%20connectable%3D%220%22%20parent%3D%221%22%3E%3CmxGeometry%20x%3D%22661%22%20y%3D%22128%22%20width%3D%2214%22%20height%3D%2214%22%20as%3D%22geometry%22%2F%3E%3C%2FmxCell%3E%3CmxCell%20id%3D%223%22%20value%3D%22%22%20style%3D%22line%3BstrokeWidth%3D2%3Bhtml%3D1%3B%22%20vertex%3D%221%22%20parent%3D%222%22%3E%3CmxGeometry%20x%3D%22-1%22%20y%3D%222%22%20width%3D%2214%22%20height%3D%2210%22%20as%3D%22geometry%22%2F%3E%3C%2FmxCell%3E%3CmxCell%20id%3D%224%22%20value%3D%22%22%20style%3D%22line%3BstrokeWidth%3D2%3Bhtml%3D1%3Brotation%3D90%3B%22%20vertex%3D%221%22%20parent%3D%222%22%3E%3CmxGeometry%20x%3D%22-1%22%20y%3D%222%22%20width%3D%2214%22%20height%3D%2210%22%20as%3D%22geometry%22%2F%3E%3C%2FmxCell%3E%3C%2Froot%3E%3C%2FmxGraphModel%3E&lt;/span&gt;" style="line;strokeWidth=2;html=1;rotation=90;" parent="126" vertex="1">
                    <mxGeometry x="-1" y="2" width="14" height="10" as="geometry"/>
                </mxCell>
                <mxCell id="130" value="" style="group" parent="7" vertex="1" connectable="0">
                    <mxGeometry x="19" y="158" width="14" height="14" as="geometry"/>
                </mxCell>
                <mxCell id="131" value="" style="line;strokeWidth=2;html=1;" parent="130" vertex="1">
                    <mxGeometry x="-1" y="2" width="14" height="10" as="geometry"/>
                </mxCell>
                <mxCell id="132" value="&lt;span style=&quot;color: rgba(0, 0, 0, 0); font-family: monospace; font-size: 0px; text-align: start; background-color: rgb(42, 37, 47);&quot;&gt;%3CmxGraphModel%3E%3Croot%3E%3CmxCell%20id%3D%220%22%2F%3E%3CmxCell%20id%3D%221%22%20parent%3D%220%22%2F%3E%3CmxCell%20id%3D%222%22%20value%3D%22%22%20style%3D%22group%22%20vertex%3D%221%22%20connectable%3D%220%22%20parent%3D%221%22%3E%3CmxGeometry%20x%3D%22661%22%20y%3D%22128%22%20width%3D%2214%22%20height%3D%2214%22%20as%3D%22geometry%22%2F%3E%3C%2FmxCell%3E%3CmxCell%20id%3D%223%22%20value%3D%22%22%20style%3D%22line%3BstrokeWidth%3D2%3Bhtml%3D1%3B%22%20vertex%3D%221%22%20parent%3D%222%22%3E%3CmxGeometry%20x%3D%22-1%22%20y%3D%222%22%20width%3D%2214%22%20height%3D%2210%22%20as%3D%22geometry%22%2F%3E%3C%2FmxCell%3E%3CmxCell%20id%3D%224%22%20value%3D%22%22%20style%3D%22line%3BstrokeWidth%3D2%3Bhtml%3D1%3Brotation%3D90%3B%22%20vertex%3D%221%22%20parent%3D%222%22%3E%3CmxGeometry%20x%3D%22-1%22%20y%3D%222%22%20width%3D%2214%22%20height%3D%2210%22%20as%3D%22geometry%22%2F%3E%3C%2FmxCell%3E%3C%2Froot%3E%3C%2FmxGraphModel%3E&lt;/span&gt;" style="line;strokeWidth=2;html=1;rotation=90;" parent="130" vertex="1">
                    <mxGeometry x="-1" y="2" width="14" height="10" as="geometry"/>
                </mxCell>
                <mxCell id="133" value="" style="group" parent="7" vertex="1" connectable="0">
                    <mxGeometry x="19" y="186" width="14" height="14" as="geometry"/>
                </mxCell>
                <mxCell id="134" value="" style="line;strokeWidth=2;html=1;" parent="133" vertex="1">
                    <mxGeometry x="-1" y="2" width="14" height="10" as="geometry"/>
                </mxCell>
                <mxCell id="135" value="&lt;span style=&quot;color: rgba(0, 0, 0, 0); font-family: monospace; font-size: 0px; text-align: start; background-color: rgb(42, 37, 47);&quot;&gt;%3CmxGraphModel%3E%3Croot%3E%3CmxCell%20id%3D%220%22%2F%3E%3CmxCell%20id%3D%221%22%20parent%3D%220%22%2F%3E%3CmxCell%20id%3D%222%22%20value%3D%22%22%20style%3D%22group%22%20vertex%3D%221%22%20connectable%3D%220%22%20parent%3D%221%22%3E%3CmxGeometry%20x%3D%22661%22%20y%3D%22128%22%20width%3D%2214%22%20height%3D%2214%22%20as%3D%22geometry%22%2F%3E%3C%2FmxCell%3E%3CmxCell%20id%3D%223%22%20value%3D%22%22%20style%3D%22line%3BstrokeWidth%3D2%3Bhtml%3D1%3B%22%20vertex%3D%221%22%20parent%3D%222%22%3E%3CmxGeometry%20x%3D%22-1%22%20y%3D%222%22%20width%3D%2214%22%20height%3D%2210%22%20as%3D%22geometry%22%2F%3E%3C%2FmxCell%3E%3CmxCell%20id%3D%224%22%20value%3D%22%22%20style%3D%22line%3BstrokeWidth%3D2%3Bhtml%3D1%3Brotation%3D90%3B%22%20vertex%3D%221%22%20parent%3D%222%22%3E%3CmxGeometry%20x%3D%22-1%22%20y%3D%222%22%20width%3D%2214%22%20height%3D%2210%22%20as%3D%22geometry%22%2F%3E%3C%2FmxCell%3E%3C%2Froot%3E%3C%2FmxGraphModel%3E&lt;/span&gt;" style="line;strokeWidth=2;html=1;rotation=90;" parent="133" vertex="1">
                    <mxGeometry x="-1" y="2" width="14" height="10" as="geometry"/>
                </mxCell>
                <mxCell id="87" value="" style="line;strokeWidth=2;html=1;" parent="140" vertex="1">
                    <mxGeometry x="18" y="70" width="14" height="10" as="geometry"/>
                </mxCell>
                <mxCell id="88" value="" style="line;strokeWidth=2;html=1;" parent="140" vertex="1">
                    <mxGeometry x="18" y="97" width="14" height="10" as="geometry"/>
                </mxCell>
                <mxCell id="141" value="" style="endArrow=none;html=1;exitX=1;exitY=0.5;exitDx=0;exitDy=0;entryX=0;entryY=0.5;entryDx=0;entryDy=0;" parent="1" source="3" target="4" edge="1">
                    <mxGeometry width="50" height="50" relative="1" as="geometry">
                        <mxPoint x="380" y="340" as="sourcePoint"/>
                        <mxPoint x="430" y="290" as="targetPoint"/>
                    </mxGeometry>
                </mxCell>
                <mxCell id="142" value="&lt;font style=&quot;font-size: 15px;&quot;&gt;1&lt;/font&gt;" style="text;strokeColor=none;align=center;fillColor=none;html=1;verticalAlign=middle;whiteSpace=wrap;rounded=0;" parent="1" vertex="1">
                    <mxGeometry x="191" y="131" width="60" height="30" as="geometry"/>
                </mxCell>
                <mxCell id="143" value="&lt;font style=&quot;font-size: 15px;&quot;&gt;1..*&lt;/font&gt;" style="text;strokeColor=none;align=center;fillColor=none;html=1;verticalAlign=middle;whiteSpace=wrap;rounded=0;" parent="1" vertex="1">
                    <mxGeometry x="280" y="131" width="60" height="30" as="geometry"/>
                </mxCell>
                <mxCell id="144" value="" style="endArrow=none;html=1;fontSize=15;entryX=0.5;entryY=1;entryDx=0;entryDy=0;exitX=0.5;exitY=0;exitDx=0;exitDy=0;" parent="1" source="2" target="3" edge="1">
                    <mxGeometry width="50" height="50" relative="1" as="geometry">
                        <mxPoint x="380" y="340" as="sourcePoint"/>
                        <mxPoint x="430" y="290" as="targetPoint"/>
                    </mxGeometry>
                </mxCell>
                <mxCell id="145" value="&lt;font style=&quot;font-size: 15px;&quot;&gt;*&lt;/font&gt;" style="text;strokeColor=none;align=center;fillColor=none;html=1;verticalAlign=middle;whiteSpace=wrap;rounded=0;" parent="1" vertex="1">
                    <mxGeometry x="125" y="320" width="60" height="30" as="geometry"/>
                </mxCell>
                <mxCell id="146" value="&lt;font style=&quot;font-size: 15px;&quot;&gt;1&lt;/font&gt;" style="text;strokeColor=none;align=center;fillColor=none;html=1;verticalAlign=middle;whiteSpace=wrap;rounded=0;" parent="1" vertex="1">
                    <mxGeometry x="125" y="250" width="60" height="30" as="geometry"/>
                </mxCell>
                <mxCell id="147" value="" style="endArrow=none;html=1;fontSize=15;entryX=0.5;entryY=1;entryDx=0;entryDy=0;exitX=0.5;exitY=0;exitDx=0;exitDy=0;" parent="1" source="8" target="64" edge="1">
                    <mxGeometry width="50" height="50" relative="1" as="geometry">
                        <mxPoint x="380" y="340" as="sourcePoint"/>
                        <mxPoint x="430" y="290" as="targetPoint"/>
                    </mxGeometry>
                </mxCell>
                <mxCell id="148" value="&lt;font style=&quot;font-size: 15px;&quot;&gt;1&lt;/font&gt;" style="text;strokeColor=none;align=center;fillColor=none;html=1;verticalAlign=middle;whiteSpace=wrap;rounded=0;" parent="1" vertex="1">
                    <mxGeometry x="642" y="332" width="60" height="30" as="geometry"/>
                </mxCell>
                <mxCell id="149" value="&lt;font style=&quot;font-size: 15px;&quot;&gt;*&lt;/font&gt;" style="text;strokeColor=none;align=center;fillColor=none;html=1;verticalAlign=middle;whiteSpace=wrap;rounded=0;" parent="1" vertex="1">
                    <mxGeometry x="642" y="270" width="60" height="30" as="geometry"/>
                </mxCell>
                <mxCell id="150" value="&lt;font style=&quot;font-size: 15px;&quot;&gt;0..&lt;/font&gt;" style="text;strokeColor=none;align=center;fillColor=none;html=1;verticalAlign=middle;whiteSpace=wrap;rounded=0;" parent="1" vertex="1">
                    <mxGeometry x="460" y="131" width="60" height="30" as="geometry"/>
                </mxCell>
                <mxCell id="151" value="" style="endArrow=none;html=1;fontSize=15;exitX=1;exitY=0.5;exitDx=0;exitDy=0;entryX=0;entryY=0.5;entryDx=0;entryDy=0;" parent="1" source="4" target="7" edge="1">
                    <mxGeometry width="50" height="50" relative="1" as="geometry">
                        <mxPoint x="380" y="340" as="sourcePoint"/>
                        <mxPoint x="430" y="290" as="targetPoint"/>
                    </mxGeometry>
                </mxCell>
                <mxCell id="152" value="&lt;font style=&quot;font-size: 15px;&quot;&gt;0..&lt;/font&gt;" style="text;strokeColor=none;align=center;fillColor=none;html=1;verticalAlign=middle;whiteSpace=wrap;rounded=0;" parent="1" vertex="1">
                    <mxGeometry x="545" y="131" width="60" height="30" as="geometry"/>
                </mxCell>
                <mxCell id="153" value="" style="endArrow=none;dashed=1;html=1;fontSize=15;exitX=1;exitY=0.5;exitDx=0;exitDy=0;entryX=0;entryY=0.5;entryDx=0;entryDy=0;" parent="1" source="2" target="6" edge="1">
                    <mxGeometry width="50" height="50" relative="1" as="geometry">
                        <mxPoint x="380" y="340" as="sourcePoint"/>
                        <mxPoint x="430" y="290" as="targetPoint"/>
                    </mxGeometry>
                </mxCell>
                <mxCell id="157" value="" style="group" parent="1" vertex="1" connectable="0">
                    <mxGeometry x="502" y="110" width="63" height="30" as="geometry"/>
                </mxCell>
                <mxCell id="154" value="發布" style="text;strokeColor=none;align=center;fillColor=none;html=1;verticalAlign=middle;whiteSpace=wrap;rounded=0;fontSize=15;" parent="157" vertex="1">
                    <mxGeometry x="3" width="60" height="30" as="geometry"/>
                </mxCell>
                <mxCell id="155" value="" style="triangle;whiteSpace=wrap;html=1;fontSize=15;" parent="157" vertex="1">
                    <mxGeometry y="4.5" width="10" height="17.5" as="geometry"/>
                </mxCell>
                <mxCell id="158" value="" style="group" parent="1" vertex="1" connectable="0">
                    <mxGeometry x="70" y="286" width="63" height="30" as="geometry"/>
                </mxCell>
                <mxCell id="159" value="簽收" style="text;strokeColor=none;align=center;fillColor=none;html=1;verticalAlign=middle;whiteSpace=wrap;rounded=0;fontSize=15;" parent="158" vertex="1">
                    <mxGeometry x="3" width="60" height="30" as="geometry"/>
                </mxCell>
                <mxCell id="160" value="" style="triangle;whiteSpace=wrap;html=1;fontSize=15;" parent="158" vertex="1">
                    <mxGeometry y="4.5" width="10" height="17.5" as="geometry"/>
                </mxCell>
                <mxCell id="161" value="" style="group" parent="1" vertex="1" connectable="0">
                    <mxGeometry x="230" y="110" width="63" height="30" as="geometry"/>
                </mxCell>
                <mxCell id="162" value="輸入" style="text;strokeColor=none;align=center;fillColor=none;html=1;verticalAlign=middle;whiteSpace=wrap;rounded=0;fontSize=15;" parent="161" vertex="1">
                    <mxGeometry x="3" width="60" height="30" as="geometry"/>
                </mxCell>
                <mxCell id="163" value="" style="triangle;whiteSpace=wrap;html=1;fontSize=15;" parent="161" vertex="1">
                    <mxGeometry y="4.5" width="10" height="17.5" as="geometry"/>
                </mxCell>
            </root>
        </mxGraphModel>
    </diagram>
    <diagram id="8tmq3IlfdMcv1QJUN-I5" name="第2頁">
        <mxGraphModel dx="832" dy="563" grid="1" gridSize="10" guides="1" tooltips="1" connect="1" arrows="1" fold="1" page="1" pageScale="1" pageWidth="827" pageHeight="1169" math="0" shadow="0">
            <root>
                <mxCell id="0"/>
                <mxCell id="1" parent="0"/>
                <mxCell id="th376n7IHXKRk8UWSnTw-1" value="" style="endArrow=none;dashed=1;html=1;" parent="1" edge="1">
                    <mxGeometry width="50" height="50" relative="1" as="geometry">
                        <mxPoint x="160.5" y="520" as="sourcePoint"/>
                        <mxPoint x="160.5" y="200" as="targetPoint"/>
                    </mxGeometry>
                </mxCell>
                <mxCell id="th376n7IHXKRk8UWSnTw-2" value="" style="endArrow=none;dashed=1;html=1;startArrow=none;" parent="1" source="th376n7IHXKRk8UWSnTw-11" edge="1">
                    <mxGeometry width="50" height="50" relative="1" as="geometry">
                        <mxPoint x="645" y="520" as="sourcePoint"/>
                        <mxPoint x="645" y="200" as="targetPoint"/>
                    </mxGeometry>
                </mxCell>
                <mxCell id="th376n7IHXKRk8UWSnTw-3" value="&lt;font style=&quot;font-size: 15px;&quot;&gt;Resident&lt;/font&gt;" style="shape=umlActor;verticalLabelPosition=bottom;verticalAlign=top;html=1;outlineConnect=0;" parent="1" vertex="1">
                    <mxGeometry x="126" y="40" width="70" height="130" as="geometry"/>
                </mxCell>
                <mxCell id="th376n7IHXKRk8UWSnTw-6" value="" style="group" parent="1" vertex="1" connectable="0">
                    <mxGeometry x="580" y="160" width="130" height="40" as="geometry"/>
                </mxCell>
                <mxCell id="th376n7IHXKRk8UWSnTw-4" value="" style="rounded=0;whiteSpace=wrap;html=1;" parent="th376n7IHXKRk8UWSnTw-6" vertex="1">
                    <mxGeometry width="130" height="40" as="geometry"/>
                </mxCell>
                <mxCell id="th376n7IHXKRk8UWSnTw-5" value="&lt;font style=&quot;font-size: 20px;&quot;&gt;APP&lt;/font&gt;" style="text;strokeColor=none;align=center;fillColor=none;html=1;verticalAlign=middle;whiteSpace=wrap;rounded=0;" parent="th376n7IHXKRk8UWSnTw-6" vertex="1">
                    <mxGeometry x="35" y="6" width="60" height="30" as="geometry"/>
                </mxCell>
                <mxCell id="th376n7IHXKRk8UWSnTw-7" value="" style="endArrow=classic;html=1;fontSize=20;" parent="1" edge="1">
                    <mxGeometry width="50" height="50" relative="1" as="geometry">
                        <mxPoint x="160" y="320" as="sourcePoint"/>
                        <mxPoint x="640" y="320" as="targetPoint"/>
                    </mxGeometry>
                </mxCell>
                <mxCell id="th376n7IHXKRk8UWSnTw-8" value="&lt;div style=&quot;color: rgb(204, 204, 204); background-color: rgb(31, 31, 31); font-family: Consolas, &amp;quot;Courier New&amp;quot;, monospace; font-size: 14px; line-height: 19px;&quot;&gt;&lt;div style=&quot;line-height: 19px;&quot;&gt;getMailPackageInfo()&lt;/div&gt;&lt;/div&gt;" style="text;strokeColor=none;align=center;fillColor=none;html=1;verticalAlign=middle;whiteSpace=wrap;rounded=0;fontSize=20;" parent="1" vertex="1">
                    <mxGeometry x="320" y="290" width="160" height="30" as="geometry"/>
                </mxCell>
                <mxCell id="th376n7IHXKRk8UWSnTw-12" value="" style="endArrow=none;dashed=1;html=1;" parent="1" target="th376n7IHXKRk8UWSnTw-11" edge="1">
                    <mxGeometry width="50" height="50" relative="1" as="geometry">
                        <mxPoint x="645" y="520" as="sourcePoint"/>
                        <mxPoint x="645" y="200" as="targetPoint"/>
                    </mxGeometry>
                </mxCell>
                <mxCell id="th376n7IHXKRk8UWSnTw-11" value="" style="rounded=0;whiteSpace=wrap;html=1;fontSize=15;fillColor=#f2f1f3;rotation=90;" parent="1" vertex="1">
                    <mxGeometry x="595" y="343" width="100" height="10" as="geometry"/>
                </mxCell>
                <mxCell id="th376n7IHXKRk8UWSnTw-14" value="" style="endArrow=classic;html=1;fontSize=15;exitX=0.94;exitY=1;exitDx=0;exitDy=0;exitPerimeter=0;dashed=1;" parent="1" edge="1">
                    <mxGeometry width="50" height="50" relative="1" as="geometry">
                        <mxPoint x="640" y="372" as="sourcePoint"/>
                        <mxPoint x="160" y="372" as="targetPoint"/>
                    </mxGeometry>
                </mxCell>
                <mxCell id="th376n7IHXKRk8UWSnTw-15" value="View information" style="text;strokeColor=none;align=center;fillColor=none;html=1;verticalAlign=middle;whiteSpace=wrap;rounded=0;fontSize=15;" parent="1" vertex="1">
                    <mxGeometry x="330" y="346" width="140" height="30" as="geometry"/>
                </mxCell>
            </root>
        </mxGraphModel>
    </diagram>
    <diagram id="xolsOebyBox-cVgYMeZu" name="第3頁">
        <mxGraphModel dx="832" dy="563" grid="1" gridSize="10" guides="1" tooltips="1" connect="1" arrows="1" fold="1" page="1" pageScale="1" pageWidth="827" pageHeight="1169" math="0" shadow="0">
            <root>
                <mxCell id="0"/>
                <mxCell id="1" parent="0"/>
                <mxCell id="Vh9b5qkVRXlaDVDnQJkl-1" value="" style="endArrow=none;dashed=1;html=1;" parent="1" edge="1">
                    <mxGeometry width="50" height="50" relative="1" as="geometry">
                        <mxPoint x="160.5" y="520" as="sourcePoint"/>
                        <mxPoint x="160.5" y="200" as="targetPoint"/>
                    </mxGeometry>
                </mxCell>
                <mxCell id="Vh9b5qkVRXlaDVDnQJkl-2" value="" style="endArrow=none;dashed=1;html=1;startArrow=none;" parent="1" source="Vh9b5qkVRXlaDVDnQJkl-10" edge="1">
                    <mxGeometry width="50" height="50" relative="1" as="geometry">
                        <mxPoint x="645" y="520" as="sourcePoint"/>
                        <mxPoint x="645" y="200" as="targetPoint"/>
                    </mxGeometry>
                </mxCell>
                <mxCell id="Vh9b5qkVRXlaDVDnQJkl-3" value="&lt;font style=&quot;font-size: 15px;&quot;&gt;Resident&lt;/font&gt;" style="shape=umlActor;verticalLabelPosition=bottom;verticalAlign=top;html=1;outlineConnect=0;" parent="1" vertex="1">
                    <mxGeometry x="126" y="40" width="70" height="130" as="geometry"/>
                </mxCell>
                <mxCell id="Vh9b5qkVRXlaDVDnQJkl-4" value="" style="group" parent="1" vertex="1" connectable="0">
                    <mxGeometry x="580" y="160" width="130" height="40" as="geometry"/>
                </mxCell>
                <mxCell id="Vh9b5qkVRXlaDVDnQJkl-5" value="" style="rounded=0;whiteSpace=wrap;html=1;" parent="Vh9b5qkVRXlaDVDnQJkl-4" vertex="1">
                    <mxGeometry width="130" height="40" as="geometry"/>
                </mxCell>
                <mxCell id="Vh9b5qkVRXlaDVDnQJkl-6" value="&lt;font style=&quot;font-size: 20px;&quot;&gt;APP&lt;/font&gt;" style="text;strokeColor=none;align=center;fillColor=none;html=1;verticalAlign=middle;whiteSpace=wrap;rounded=0;" parent="Vh9b5qkVRXlaDVDnQJkl-4" vertex="1">
                    <mxGeometry x="35" y="6" width="60" height="30" as="geometry"/>
                </mxCell>
                <mxCell id="Vh9b5qkVRXlaDVDnQJkl-7" value="" style="endArrow=classic;html=1;fontSize=20;" parent="1" edge="1">
                    <mxGeometry width="50" height="50" relative="1" as="geometry">
                        <mxPoint x="160" y="320" as="sourcePoint"/>
                        <mxPoint x="640" y="320" as="targetPoint"/>
                    </mxGeometry>
                </mxCell>
                <mxCell id="Vh9b5qkVRXlaDVDnQJkl-8" value="&lt;div style=&quot;color: rgb(204, 204, 204); background-color: rgb(31, 31, 31); font-family: Consolas, &amp;quot;Courier New&amp;quot;, monospace; font-size: 14px; line-height: 19px;&quot;&gt;&lt;div style=&quot;line-height: 19px;&quot;&gt;&lt;div style=&quot;line-height: 19px;&quot;&gt;updateUserProfile()&lt;/div&gt;&lt;/div&gt;&lt;/div&gt;" style="text;strokeColor=none;align=center;fillColor=none;html=1;verticalAlign=middle;whiteSpace=wrap;rounded=0;fontSize=20;" parent="1" vertex="1">
                    <mxGeometry x="320" y="290" width="160" height="30" as="geometry"/>
                </mxCell>
                <mxCell id="Vh9b5qkVRXlaDVDnQJkl-9" value="" style="endArrow=none;dashed=1;html=1;" parent="1" target="Vh9b5qkVRXlaDVDnQJkl-10" edge="1">
                    <mxGeometry width="50" height="50" relative="1" as="geometry">
                        <mxPoint x="645" y="520" as="sourcePoint"/>
                        <mxPoint x="645" y="200" as="targetPoint"/>
                    </mxGeometry>
                </mxCell>
                <mxCell id="Vh9b5qkVRXlaDVDnQJkl-10" value="" style="rounded=0;whiteSpace=wrap;html=1;fontSize=15;fillColor=#f2f1f3;rotation=90;" parent="1" vertex="1">
                    <mxGeometry x="595" y="343" width="100" height="10" as="geometry"/>
                </mxCell>
                <mxCell id="Vh9b5qkVRXlaDVDnQJkl-11" value="" style="endArrow=classic;html=1;fontSize=15;exitX=0.94;exitY=1;exitDx=0;exitDy=0;exitPerimeter=0;dashed=1;" parent="1" edge="1">
                    <mxGeometry width="50" height="50" relative="1" as="geometry">
                        <mxPoint x="640" y="372" as="sourcePoint"/>
                        <mxPoint x="160" y="372" as="targetPoint"/>
                    </mxGeometry>
                </mxCell>
                <mxCell id="Vh9b5qkVRXlaDVDnQJkl-12" value="Confirm information" style="text;strokeColor=none;align=center;fillColor=none;html=1;verticalAlign=middle;whiteSpace=wrap;rounded=0;fontSize=15;" parent="1" vertex="1">
                    <mxGeometry x="330" y="346" width="140" height="30" as="geometry"/>
                </mxCell>
            </root>
        </mxGraphModel>
    </diagram>
    <diagram id="ZnlKfD5Uj_k8btriRPFE" name="第4頁">
        <mxGraphModel dx="832" dy="563" grid="1" gridSize="10" guides="1" tooltips="1" connect="1" arrows="1" fold="1" page="1" pageScale="1" pageWidth="827" pageHeight="1169" math="0" shadow="0">
            <root>
                <mxCell id="0"/>
                <mxCell id="1" parent="0"/>
                <mxCell id="5qlWGPF7PmfeM00MQo3a-1" value="" style="endArrow=none;dashed=1;html=1;" edge="1" parent="1">
                    <mxGeometry width="50" height="50" relative="1" as="geometry">
                        <mxPoint x="160.5" y="520" as="sourcePoint"/>
                        <mxPoint x="160.5" y="200" as="targetPoint"/>
                    </mxGeometry>
                </mxCell>
                <mxCell id="5qlWGPF7PmfeM00MQo3a-2" value="" style="endArrow=none;dashed=1;html=1;startArrow=none;" edge="1" parent="1" source="5qlWGPF7PmfeM00MQo3a-10">
                    <mxGeometry width="50" height="50" relative="1" as="geometry">
                        <mxPoint x="645" y="520" as="sourcePoint"/>
                        <mxPoint x="645" y="200" as="targetPoint"/>
                    </mxGeometry>
                </mxCell>
                <mxCell id="5qlWGPF7PmfeM00MQo3a-3" value="&lt;font style=&quot;font-size: 15px;&quot;&gt;Chairman&lt;/font&gt;" style="shape=umlActor;verticalLabelPosition=bottom;verticalAlign=top;html=1;outlineConnect=0;" vertex="1" parent="1">
                    <mxGeometry x="126" y="40" width="70" height="130" as="geometry"/>
                </mxCell>
                <mxCell id="5qlWGPF7PmfeM00MQo3a-4" value="" style="group" vertex="1" connectable="0" parent="1">
                    <mxGeometry x="580" y="160" width="130" height="40" as="geometry"/>
                </mxCell>
                <mxCell id="5qlWGPF7PmfeM00MQo3a-5" value="" style="rounded=0;whiteSpace=wrap;html=1;" vertex="1" parent="5qlWGPF7PmfeM00MQo3a-4">
                    <mxGeometry width="130" height="40" as="geometry"/>
                </mxCell>
                <mxCell id="5qlWGPF7PmfeM00MQo3a-6" value="&lt;font style=&quot;font-size: 20px;&quot;&gt;APP&lt;/font&gt;" style="text;strokeColor=none;align=center;fillColor=none;html=1;verticalAlign=middle;whiteSpace=wrap;rounded=0;" vertex="1" parent="5qlWGPF7PmfeM00MQo3a-4">
                    <mxGeometry x="35" y="6" width="60" height="30" as="geometry"/>
                </mxCell>
                <mxCell id="5qlWGPF7PmfeM00MQo3a-7" value="" style="endArrow=classic;html=1;fontSize=20;" edge="1" parent="1">
                    <mxGeometry width="50" height="50" relative="1" as="geometry">
                        <mxPoint x="160" y="320" as="sourcePoint"/>
                        <mxPoint x="640" y="320" as="targetPoint"/>
                    </mxGeometry>
                </mxCell>
                <mxCell id="5qlWGPF7PmfeM00MQo3a-8" value="&lt;div style=&quot;color: rgb(204, 204, 204); background-color: rgb(31, 31, 31); font-family: Consolas, &amp;quot;Courier New&amp;quot;, monospace; font-size: 14px; line-height: 19px;&quot;&gt;&lt;div style=&quot;line-height: 19px;&quot;&gt;&lt;div style=&quot;line-height: 19px;&quot;&gt;&lt;div style=&quot;line-height: 19px;&quot;&gt;publishAnnouncement()&lt;/div&gt;&lt;/div&gt;&lt;/div&gt;&lt;/div&gt;" style="text;strokeColor=none;align=center;fillColor=none;html=1;verticalAlign=middle;whiteSpace=wrap;rounded=0;fontSize=20;" vertex="1" parent="1">
                    <mxGeometry x="320" y="290" width="160" height="30" as="geometry"/>
                </mxCell>
                <mxCell id="5qlWGPF7PmfeM00MQo3a-9" value="" style="endArrow=none;dashed=1;html=1;" edge="1" parent="1" target="5qlWGPF7PmfeM00MQo3a-10">
                    <mxGeometry width="50" height="50" relative="1" as="geometry">
                        <mxPoint x="645" y="520" as="sourcePoint"/>
                        <mxPoint x="645" y="200" as="targetPoint"/>
                    </mxGeometry>
                </mxCell>
                <mxCell id="5qlWGPF7PmfeM00MQo3a-10" value="" style="rounded=0;whiteSpace=wrap;html=1;fontSize=15;fillColor=#f2f1f3;rotation=90;" vertex="1" parent="1">
                    <mxGeometry x="595" y="343" width="100" height="10" as="geometry"/>
                </mxCell>
                <mxCell id="5qlWGPF7PmfeM00MQo3a-11" value="" style="endArrow=classic;html=1;fontSize=15;exitX=0.94;exitY=1;exitDx=0;exitDy=0;exitPerimeter=0;dashed=1;" edge="1" parent="1">
                    <mxGeometry width="50" height="50" relative="1" as="geometry">
                        <mxPoint x="640" y="372" as="sourcePoint"/>
                        <mxPoint x="160" y="372" as="targetPoint"/>
                    </mxGeometry>
                </mxCell>
                <mxCell id="5qlWGPF7PmfeM00MQo3a-12" value="Posted successfully" style="text;strokeColor=none;align=center;fillColor=none;html=1;verticalAlign=middle;whiteSpace=wrap;rounded=0;fontSize=15;" vertex="1" parent="1">
                    <mxGeometry x="330" y="346" width="140" height="30" as="geometry"/>
                </mxCell>
            </root>
        </mxGraphModel>
    </diagram>
    <diagram id="gT3DDRksEEf7jzpoi84R" name="第5頁">
        <mxGraphModel dx="832" dy="563" grid="1" gridSize="10" guides="1" tooltips="1" connect="1" arrows="1" fold="1" page="1" pageScale="1" pageWidth="827" pageHeight="1169" math="0" shadow="0">
            <root>
                <mxCell id="0"/>
                <mxCell id="1" parent="0"/>
                <mxCell id="tcsATpA_Km_IqQpOoaM6-1" value="" style="endArrow=none;dashed=1;html=1;" edge="1" parent="1">
                    <mxGeometry width="50" height="50" relative="1" as="geometry">
                        <mxPoint x="160.5" y="520" as="sourcePoint"/>
                        <mxPoint x="160.5" y="200" as="targetPoint"/>
                    </mxGeometry>
                </mxCell>
                <mxCell id="tcsATpA_Km_IqQpOoaM6-2" value="" style="endArrow=none;dashed=1;html=1;startArrow=none;" edge="1" parent="1" source="tcsATpA_Km_IqQpOoaM6-10">
                    <mxGeometry width="50" height="50" relative="1" as="geometry">
                        <mxPoint x="645" y="520" as="sourcePoint"/>
                        <mxPoint x="645" y="200" as="targetPoint"/>
                    </mxGeometry>
                </mxCell>
                <mxCell id="tcsATpA_Km_IqQpOoaM6-3" value="&lt;font style=&quot;font-size: 15px;&quot;&gt;Guard&lt;/font&gt;" style="shape=umlActor;verticalLabelPosition=bottom;verticalAlign=top;html=1;outlineConnect=0;" vertex="1" parent="1">
                    <mxGeometry x="126" y="40" width="70" height="130" as="geometry"/>
                </mxCell>
                <mxCell id="tcsATpA_Km_IqQpOoaM6-4" value="" style="group" vertex="1" connectable="0" parent="1">
                    <mxGeometry x="580" y="160" width="130" height="40" as="geometry"/>
                </mxCell>
                <mxCell id="tcsATpA_Km_IqQpOoaM6-5" value="" style="rounded=0;whiteSpace=wrap;html=1;" vertex="1" parent="tcsATpA_Km_IqQpOoaM6-4">
                    <mxGeometry width="130" height="40" as="geometry"/>
                </mxCell>
                <mxCell id="tcsATpA_Km_IqQpOoaM6-6" value="&lt;font style=&quot;font-size: 20px;&quot;&gt;APP&lt;/font&gt;" style="text;strokeColor=none;align=center;fillColor=none;html=1;verticalAlign=middle;whiteSpace=wrap;rounded=0;" vertex="1" parent="tcsATpA_Km_IqQpOoaM6-4">
                    <mxGeometry x="35" y="6" width="60" height="30" as="geometry"/>
                </mxCell>
                <mxCell id="tcsATpA_Km_IqQpOoaM6-7" value="" style="endArrow=classic;html=1;fontSize=20;" edge="1" parent="1">
                    <mxGeometry width="50" height="50" relative="1" as="geometry">
                        <mxPoint x="160" y="320" as="sourcePoint"/>
                        <mxPoint x="640" y="320" as="targetPoint"/>
                    </mxGeometry>
                </mxCell>
                <mxCell id="tcsATpA_Km_IqQpOoaM6-8" value="&lt;div style=&quot;color: rgb(204, 204, 204); background-color: rgb(31, 31, 31); font-family: Consolas, &amp;quot;Courier New&amp;quot;, monospace; font-size: 14px; line-height: 19px;&quot;&gt;&lt;div style=&quot;line-height: 19px;&quot;&gt;&lt;div style=&quot;line-height: 19px;&quot;&gt;&lt;div style=&quot;line-height: 19px;&quot;&gt;&lt;div style=&quot;line-height: 19px;&quot;&gt;replyToAnnouncement()&lt;/div&gt;&lt;/div&gt;&lt;/div&gt;&lt;/div&gt;&lt;/div&gt;" style="text;strokeColor=none;align=center;fillColor=none;html=1;verticalAlign=middle;whiteSpace=wrap;rounded=0;fontSize=20;" vertex="1" parent="1">
                    <mxGeometry x="320" y="290" width="160" height="30" as="geometry"/>
                </mxCell>
                <mxCell id="tcsATpA_Km_IqQpOoaM6-9" value="" style="endArrow=none;dashed=1;html=1;" edge="1" parent="1" target="tcsATpA_Km_IqQpOoaM6-10">
                    <mxGeometry width="50" height="50" relative="1" as="geometry">
                        <mxPoint x="645" y="520" as="sourcePoint"/>
                        <mxPoint x="645" y="200" as="targetPoint"/>
                    </mxGeometry>
                </mxCell>
                <mxCell id="tcsATpA_Km_IqQpOoaM6-10" value="" style="rounded=0;whiteSpace=wrap;html=1;fontSize=15;fillColor=#f2f1f3;rotation=90;" vertex="1" parent="1">
                    <mxGeometry x="595" y="343" width="100" height="10" as="geometry"/>
                </mxCell>
                <mxCell id="tcsATpA_Km_IqQpOoaM6-11" value="" style="endArrow=classic;html=1;fontSize=15;exitX=0.94;exitY=1;exitDx=0;exitDy=0;exitPerimeter=0;dashed=1;" edge="1" parent="1">
                    <mxGeometry width="50" height="50" relative="1" as="geometry">
                        <mxPoint x="640" y="372" as="sourcePoint"/>
                        <mxPoint x="160" y="372" as="targetPoint"/>
                    </mxGeometry>
                </mxCell>
                <mxCell id="tcsATpA_Km_IqQpOoaM6-12" value="Show success" style="text;strokeColor=none;align=center;fillColor=none;html=1;verticalAlign=middle;whiteSpace=wrap;rounded=0;fontSize=15;" vertex="1" parent="1">
                    <mxGeometry x="330" y="346" width="140" height="30" as="geometry"/>
                </mxCell>
            </root>
        </mxGraphModel>
    </diagram>
    <diagram id="nTc3T2l1zV_qdnIbgRIr" name="第6頁">
        <mxGraphModel dx="832" dy="563" grid="1" gridSize="10" guides="1" tooltips="1" connect="1" arrows="1" fold="1" page="1" pageScale="1" pageWidth="827" pageHeight="1169" math="0" shadow="0">
            <root>
                <mxCell id="0"/>
                <mxCell id="1" parent="0"/>
                <mxCell id="xcTbM3Rtvwgebms8BeOO-13" value="" style="endArrow=none;dashed=1;html=1;" edge="1" parent="1">
                    <mxGeometry width="50" height="50" relative="1" as="geometry">
                        <mxPoint x="170.5" y="530" as="sourcePoint"/>
                        <mxPoint x="170.5" y="210" as="targetPoint"/>
                    </mxGeometry>
                </mxCell>
                <mxCell id="xcTbM3Rtvwgebms8BeOO-14" value="" style="endArrow=none;dashed=1;html=1;startArrow=none;" edge="1" parent="1" source="xcTbM3Rtvwgebms8BeOO-22">
                    <mxGeometry width="50" height="50" relative="1" as="geometry">
                        <mxPoint x="655" y="530" as="sourcePoint"/>
                        <mxPoint x="655" y="210" as="targetPoint"/>
                    </mxGeometry>
                </mxCell>
                <mxCell id="xcTbM3Rtvwgebms8BeOO-15" value="&lt;font style=&quot;font-size: 15px;&quot;&gt;maintenance personnel&lt;/font&gt;" style="shape=umlActor;verticalLabelPosition=bottom;verticalAlign=top;html=1;outlineConnect=0;" vertex="1" parent="1">
                    <mxGeometry x="136" y="50" width="70" height="130" as="geometry"/>
                </mxCell>
                <mxCell id="xcTbM3Rtvwgebms8BeOO-16" value="" style="group" vertex="1" connectable="0" parent="1">
                    <mxGeometry x="590" y="170" width="130" height="40" as="geometry"/>
                </mxCell>
                <mxCell id="xcTbM3Rtvwgebms8BeOO-17" value="" style="rounded=0;whiteSpace=wrap;html=1;" vertex="1" parent="xcTbM3Rtvwgebms8BeOO-16">
                    <mxGeometry width="130" height="40" as="geometry"/>
                </mxCell>
                <mxCell id="xcTbM3Rtvwgebms8BeOO-18" value="&lt;font style=&quot;font-size: 20px;&quot;&gt;APP&lt;/font&gt;" style="text;strokeColor=none;align=center;fillColor=none;html=1;verticalAlign=middle;whiteSpace=wrap;rounded=0;" vertex="1" parent="xcTbM3Rtvwgebms8BeOO-16">
                    <mxGeometry x="35" y="6" width="60" height="30" as="geometry"/>
                </mxCell>
                <mxCell id="xcTbM3Rtvwgebms8BeOO-19" value="" style="endArrow=classic;html=1;fontSize=20;" edge="1" parent="1">
                    <mxGeometry width="50" height="50" relative="1" as="geometry">
                        <mxPoint x="170" y="330" as="sourcePoint"/>
                        <mxPoint x="650" y="330" as="targetPoint"/>
                    </mxGeometry>
                </mxCell>
                <mxCell id="xcTbM3Rtvwgebms8BeOO-20" value="&lt;div style=&quot;color: rgb(204, 204, 204); background-color: rgb(31, 31, 31); font-family: Consolas, &amp;quot;Courier New&amp;quot;, monospace; font-size: 14px; line-height: 19px;&quot;&gt;&lt;div style=&quot;line-height: 19px;&quot;&gt;&lt;div style=&quot;line-height: 19px;&quot;&gt;&lt;div style=&quot;line-height: 19px;&quot;&gt;&lt;div style=&quot;line-height: 19px;&quot;&gt;&lt;div style=&quot;line-height: 19px;&quot;&gt;getNotification()&lt;/div&gt;&lt;/div&gt;&lt;/div&gt;&lt;/div&gt;&lt;/div&gt;&lt;/div&gt;" style="text;strokeColor=none;align=center;fillColor=none;html=1;verticalAlign=middle;whiteSpace=wrap;rounded=0;fontSize=20;" vertex="1" parent="1">
                    <mxGeometry x="330" y="300" width="160" height="30" as="geometry"/>
                </mxCell>
                <mxCell id="xcTbM3Rtvwgebms8BeOO-21" value="" style="endArrow=none;dashed=1;html=1;" edge="1" parent="1" target="xcTbM3Rtvwgebms8BeOO-22">
                    <mxGeometry width="50" height="50" relative="1" as="geometry">
                        <mxPoint x="655" y="530" as="sourcePoint"/>
                        <mxPoint x="655" y="210" as="targetPoint"/>
                    </mxGeometry>
                </mxCell>
                <mxCell id="xcTbM3Rtvwgebms8BeOO-22" value="" style="rounded=0;whiteSpace=wrap;html=1;fontSize=15;fillColor=#f2f1f3;rotation=90;" vertex="1" parent="1">
                    <mxGeometry x="605" y="353" width="100" height="10" as="geometry"/>
                </mxCell>
                <mxCell id="xcTbM3Rtvwgebms8BeOO-23" value="" style="endArrow=classic;html=1;fontSize=15;exitX=0.94;exitY=1;exitDx=0;exitDy=0;exitPerimeter=0;dashed=1;" edge="1" parent="1">
                    <mxGeometry width="50" height="50" relative="1" as="geometry">
                        <mxPoint x="650" y="382" as="sourcePoint"/>
                        <mxPoint x="170" y="382" as="targetPoint"/>
                    </mxGeometry>
                </mxCell>
                <mxCell id="xcTbM3Rtvwgebms8BeOO-24" value="View notifications" style="text;strokeColor=none;align=center;fillColor=none;html=1;verticalAlign=middle;whiteSpace=wrap;rounded=0;fontSize=15;" vertex="1" parent="1">
                    <mxGeometry x="340" y="356" width="140" height="30" as="geometry"/>
                </mxCell>
            </root>
        </mxGraphModel>
    </diagram>
</mxfile>